ffmpeg version 4.2.7-0ubuntu0.1 Copyright (c) 2000-2022 the FFmpeg developers
  built with gcc 9 (Ubuntu 9.4.0-1ubuntu1~20.04.1)
  configuration: --prefix=/usr --extra-version=0ubuntu0.1 --toolchain=hardened --libdir=/usr/lib/x86_64-linux-gnu --incdir=/usr/include/x86_64-linux-gnu --arch=amd64 --enable-gpl --disable-stripping --enable-avresample --disable-filter=resample --enable-avisynth --enable-gnutls --enable-ladspa --enable-libaom --enable-libass --enable-libbluray --enable-libbs2b --enable-libcaca --enable-libcdio --enable-libcodec2 --enable-libflite --enable-libfontconfig --enable-libfreetype --enable-libfribidi --enable-libgme --enable-libgsm --enable-libjack --enable-libmp3lame --enable-libmysofa --enable-libopenjpeg --enable-libopenmpt --enable-libopus --enable-libpulse --enable-librsvg --enable-librubberband --enable-libshine --enable-libsnappy --enable-libsoxr --enable-libspeex --enable-libssh --enable-libtheora --enable-libtwolame --enable-libvidstab --enable-libvorbis --enable-libvpx --enable-libwavpack --enable-libwebp --enable-libx265 --enable-libxml2 --enable-libxvid --enable-libzmq --enable-libzvbi --enable-lv2 --enable-omx --enable-openal --enable-opencl --enable-opengl --enable-sdl2 --enable-libdc1394 --enable-libdrm --enable-libiec61883 --enable-nvenc --enable-chromaprint --enable-frei0r --enable-libx264 --enable-shared
  libavutil      56. 31.100 / 56. 31.100
  libavcodec     58. 54.100 / 58. 54.100
  libavformat    58. 29.100 / 58. 29.100
  libavdevice    58.  8.100 / 58.  8.100
  libavfilter     7. 57.100 /  7. 57.100
  libavresample   4.  0.  0 /  4.  0.  0
  libswscale      5.  5.100 /  5.  5.100
  libswresample   3.  5.100 /  3.  5.100
  libpostproc    55.  5.100 / 55.  5.100
Input #0, rawvideo, from 'pipe:':
  Duration: N/A, start: 0.000000, bitrate: 552960 kb/s
    Stream #0:0: Video: rawvideo (RGB[24] / 0x18424752), rgb24, 1280x720, 552960 kb/s, 25 tbr, 25 tbn, 25 tbc
Stream mapping:
  Stream #0:0 -> #0:0 (rawvideo (native) -> mpeg4 (native))
Output #0, mp4, to '../sout/output_sob_baseline.mp4':
  Metadata:
    encoder         : Lavf58.29.100
    Stream #0:0: Video: mpeg4 (mp4v / 0x7634706D), yuv420p, 1280x720, q=2-31, 200 kb/s, 25 fps, 12800 tbn, 25 tbc
    Metadata:
      encoder         : Lavc58.54.100 mpeg4
    Side data:
      cpb: bitrate max/min/avg: 0/0/200000 buffer size: 0 vbv_delay: -1
frame=    8 fps=0.0 q=5.0 size=     256kB time=00:00:00.28 bitrate=7489.0kbits/s speed=0.475x    frame=   15 fps= 14 q=5.0 size=     512kB time=00:00:00.56 bitrate=7489.4kbits/s speed=0.507x    frame=   22 fps= 13 q=5.0 size=     768kB time=00:00:00.84 bitrate=7489.6kbits/s speed=0.51x    frame=   29 fps= 13 q=5.0 size=    1024kB time=00:00:01.12 bitrate=7489.6kbits/s speed=0.513x    frame=   36 fps= 13 q=5.0 size=    1280kB time=00:00:01.40 bitrate=7489.7kbits/s speed=0.521x    frame=   42 fps= 13 q=5.0 size=    1536kB time=00:00:01.64 bitrate=7672.4kbits/s speed=0.509x    frame=   48 fps= 13 q=5.0 size=    1792kB time=00:00:01.88 bitrate=7808.4kbits/s speed=0.493x    frame=   55 fps= 13 q=5.0 size=    2048kB time=00:00:02.16 bitrate=7767.1kbits/s speed=0.497x    frame=   63 fps= 13 q=5.0 size=    2560kB time=00:00:02.48 bitrate=8456.1kbits/s speed=0.505x    frame=   71 fps= 13 q=5.0 size=    2816kB time=00:00:02.80 bitrate=8238.7kbits/s speed=0.511x    frame=   78 fps= 13 q=5.0 size=    3072kB time=00:00:03.08 bitrate=8170.6kbits/s speed=0.511x    frame=   84 fps= 13 q=5.0 size=    3328kB time=00:00:03.32 bitrate=8211.7kbits/s speed=0.508x    frame=   91 fps= 13 q=5.0 size=    3584kB time=00:00:03.60 bitrate=8155.5kbits/s speed=0.508x    frame=   97 fps= 13 q=5.0 size=    3840kB time=00:00:03.84 bitrate=8191.9kbits/s speed=0.505x    frame=  103 fps= 13 q=5.0 size=    4096kB time=00:00:04.08 bitrate=8224.1kbits/s speed=0.501x    frame=  109 fps= 13 q=5.0 size=    4352kB time=00:00:04.32 bitrate=8252.6kbits/s speed=0.497x    frame=  115 fps= 12 q=5.0 size=    4352kB time=00:00:04.56 bitrate=7818.3kbits/s speed=0.495x    frame=  121 fps= 12 q=5.0 size=    4608kB time=00:00:04.80 bitrate=7864.3kbits/s speed=0.492x    frame=  127 fps= 12 q=5.0 size=    4864kB time=00:00:05.04 bitrate=7905.9kbits/s speed=0.49x    frame=  135 fps= 12 q=5.0 size=    5120kB time=00:00:05.36 bitrate=7825.1kbits/s speed=0.494x    frame=  142 fps= 12 q=5.0 size=    5376kB time=00:00:05.64 bitrate=7808.5kbits/s speed=0.496x    frame=  149 fps= 12 q=5.0 size=    5632kB time=00:00:05.92 bitrate=7793.4kbits/s speed=0.497x    frame=  156 fps= 12 q=5.0 size=    5888kB time=00:00:06.20 bitrate=7779.7kbits/s speed=0.496x    frame=  162 fps= 12 q=5.0 size=    5888kB time=00:00:06.44 bitrate=7489.8kbits/s speed=0.494x    frame=  168 fps= 12 q=5.0 size=    6144kB time=00:00:06.68 bitrate=7534.6kbits/s speed=0.493x    frame=  175 fps= 12 q=5.0 size=    6400kB time=00:00:06.96 bitrate=7532.8kbits/s speed=0.495x    frame=  182 fps= 13 q=5.0 size=    6656kB time=00:00:07.24 bitrate=7531.2kbits/s speed=0.497x    frame=  189 fps= 13 q=5.0 size=    6912kB time=00:00:07.52 bitrate=7529.6kbits/s speed=0.497x    frame=  196 fps= 13 q=5.0 size=    6912kB time=00:00:07.80 bitrate=7259.3kbits/s speed=0.499x    frame=  202 fps= 12 q=5.0 size=    7168kB time=00:00:08.04 bitrate=7303.5kbits/s speed=0.497x    frame=  207 fps= 12 q=5.0 size=    7424kB time=00:00:08.24 bitrate=7380.7kbits/s speed=0.49x    frame=  212 fps= 12 q=5.0 size=    7680kB time=00:00:08.44 bitrate=7454.3kbits/s speed=0.485x    frame=  219 fps= 12 q=5.0 size=    7936kB time=00:00:08.72 bitrate=7455.4kbits/s speed=0.486x    frame=  226 fps= 12 q=5.0 size=    8192kB time=00:00:09.00 bitrate=7456.5kbits/s speed=0.487x    frame=  233 fps= 12 q=5.0 size=    8448kB time=00:00:09.28 bitrate=7457.5kbits/s speed=0.487x    frame=  240 fps= 12 q=5.0 size=    8704kB time=00:00:09.56 bitrate=7458.5kbits/s speed=0.489x    frame=  246 fps= 12 q=5.0 size=    8960kB time=00:00:09.80 bitrate=7489.8kbits/s speed=0.488x    frame=  252 fps= 12 q=5.0 size=    9216kB time=00:00:10.04 bitrate=7519.6kbits/s speed=0.487x    frame=  258 fps= 12 q=5.0 size=    9472kB time=00:00:10.28 bitrate=7548.1kbits/s speed=0.487x    frame=  264 fps= 12 q=5.0 size=    9728kB time=00:00:10.52 bitrate=7575.2kbits/s speed=0.486x    frame=  270 fps= 12 q=5.0 size=    9984kB time=00:00:10.76 bitrate=7601.2kbits/s speed=0.485x    frame=  275 fps= 12 q=5.0 size=   10240kB time=00:00:10.96 bitrate=7653.8kbits/s speed=0.482x    frame=  282 fps= 12 q=5.0 size=   10496kB time=00:00:11.24 bitrate=7649.7kbits/s speed=0.482x    frame=  289 fps= 12 q=5.0 size=   10752kB time=00:00:11.52 bitrate=7645.8kbits/s speed=0.483x    frame=  296 fps= 12 q=5.0 size=   10752kB time=00:00:11.80 bitrate=7464.4kbits/s speed=0.483x    frame=  304 fps= 12 q=5.0 size=   11264kB time=00:00:12.12 bitrate=7613.4kbits/s speed=0.485x    frame=  311 fps= 12 q=5.0 size=   11264kB time=00:00:12.40 bitrate=7441.5kbits/s speed=0.485x    frame=  318 fps= 12 q=5.0 size=   11520kB time=00:00:12.68 bitrate=7442.6kbits/s speed=0.487x    frame=  325 fps= 12 q=5.0 size=   11776kB time=00:00:12.96 bitrate=7443.6kbits/s speed=0.487x    frame=  332 fps= 12 q=5.0 size=   12032kB time=00:00:13.24 bitrate=7444.6kbits/s speed=0.487x    frame=  339 fps= 12 q=5.0 size=   12288kB time=00:00:13.52 bitrate=7445.5kbits/s speed=0.488x    frame=  346 fps= 12 q=5.0 size=   12288kB time=00:00:13.80 bitrate=7294.4kbits/s speed=0.49x    frame=  353 fps= 12 q=5.0 size=   12544kB time=00:00:14.08 bitrate=7298.3kbits/s speed=0.49x    frame=  360 fps= 12 q=5.0 Lsize=   12875kB time=00:00:14.36 bitrate=7344.8kbits/s speed=0.492x    
video:12873kB audio:0kB subtitle:0kB other streams:0kB global headers:0kB muxing overhead: 0.019702%
ffmpeg version 4.2.7-0ubuntu0.1 Copyright (c) 2000-2022 the FFmpeg developers
  built with gcc 9 (Ubuntu 9.4.0-1ubuntu1~20.04.1)
  configuration: --prefix=/usr --extra-version=0ubuntu0.1 --toolchain=hardened --libdir=/usr/lib/x86_64-linux-gnu --incdir=/usr/include/x86_64-linux-gnu --arch=amd64 --enable-gpl --disable-stripping --enable-avresample --disable-filter=resample --enable-avisynth --enable-gnutls --enable-ladspa --enable-libaom --enable-libass --enable-libbluray --enable-libbs2b --enable-libcaca --enable-libcdio --enable-libcodec2 --enable-libflite --enable-libfontconfig --enable-libfreetype --enable-libfribidi --enable-libgme --enable-libgsm --enable-libjack --enable-libmp3lame --enable-libmysofa --enable-libopenjpeg --enable-libopenmpt --enable-libopus --enable-libpulse --enable-librsvg --enable-librubberband --enable-libshine --enable-libsnappy --enable-libsoxr --enable-libspeex --enable-libssh --enable-libtheora --enable-libtwolame --enable-libvidstab --enable-libvorbis --enable-libvpx --enable-libwavpack --enable-libwebp --enable-libx265 --enable-libxml2 --enable-libxvid --enable-libzmq --enable-libzvbi --enable-lv2 --enable-omx --enable-openal --enable-opencl --enable-opengl --enable-sdl2 --enable-libdc1394 --enable-libdrm --enable-libiec61883 --enable-nvenc --enable-chromaprint --enable-frei0r --enable-libx264 --enable-shared
  libavutil      56. 31.100 / 56. 31.100
  libavcodec     58. 54.100 / 58. 54.100
  libavformat    58. 29.100 / 58. 29.100
  libavdevice    58.  8.100 / 58.  8.100
  libavfilter     7. 57.100 /  7. 57.100
  libavresample   4.  0.  0 /  4.  0.  0
  libswscale      5.  5.100 /  5.  5.100
  libswresample   3.  5.100 /  3.  5.100
  libpostproc    55.  5.100 / 55.  5.100
Input #0, rawvideo, from 'pipe:':
  Duration: N/A, start: 0.000000, bitrate: 552960 kb/s
    Stream #0:0: Video: rawvideo (RGB[24] / 0x18424752), rgb24, 1280x720, 552960 kb/s, 25 tbr, 25 tbn, 25 tbc
Stream mapping:
  Stream #0:0 -> #0:0 (rawvideo (native) -> mpeg4 (native))
Output #0, mp4, to '../sout/output_sob_baseline.mp4':
  Metadata:
    encoder         : Lavf58.29.100
    Stream #0:0: Video: mpeg4 (mp4v / 0x7634706D), yuv420p, 1280x720, q=2-31, 200 kb/s, 25 fps, 12800 tbn, 25 tbc
    Metadata:
      encoder         : Lavc58.54.100 mpeg4
    Side data:
      cpb: bitrate max/min/avg: 0/0/200000 buffer size: 0 vbv_delay: -1
frame=    7 fps=0.0 q=5.0 size=     256kB time=00:00:00.24 bitrate=8736.8kbits/s speed=0.436x    frame=   13 fps= 12 q=5.0 size=     512kB time=00:00:00.48 bitrate=8737.4kbits/s speed=0.443x    frame=   19 fps= 12 q=5.0 size=     512kB time=00:00:00.72 bitrate=5825.3kbits/s speed=0.444x    frame=   25 fps= 12 q=5.0 size=    1024kB time=00:00:00.96 bitrate=8737.8kbits/s speed=0.447x    frame=   31 fps= 12 q=5.0 size=    1024kB time=00:00:01.20 bitrate=6990.3kbits/s speed=0.448x    frame=   38 fps= 12 q=5.0 size=    1536kB time=00:00:01.48 bitrate=8501.8kbits/s speed=0.459x    frame=   45 fps= 12 q=5.0 size=    1792kB time=00:00:01.76 bitrate=8340.8kbits/s speed=0.464x    frame=   52 fps= 12 q=5.0 size=    2048kB time=00:00:02.04 bitrate=8224.0kbits/s speed=0.467x    frame=   58 fps= 12 q=5.0 size=    2304kB time=00:00:02.28 bitrate=8278.1kbits/s speed=0.463x    frame=   63 fps= 12 q=5.0 size=    2560kB time=00:00:02.48 bitrate=8456.1kbits/s speed=0.456x    frame=   69 fps= 12 q=5.0 size=    2816kB time=00:00:02.72 bitrate=8481.0kbits/s speed=0.456x    frame=   76 fps= 12 q=5.0 size=    3072kB time=00:00:03.00 bitrate=8388.5kbits/s speed=0.46x    frame=   85 fps= 12 q=5.0 size=    3328kB time=00:00:03.36 bitrate=8113.9kbits/s speed=0.475x    frame=   92 fps= 12 q=5.0 size=    3584kB time=00:00:03.64 bitrate=8065.9kbits/s speed=0.48x    frame=   99 fps= 12 q=5.0 size=    3840kB time=00:00:03.92 bitrate=8024.7kbits/s speed=0.483x    frame=  106 fps= 12 q=5.0 size=    4096kB time=00:00:04.20 bitrate=7989.1kbits/s speed=0.486x    frame=  113 fps= 12 q=5.0 size=    4352kB time=00:00:04.48 bitrate=7957.9kbits/s speed=0.49x    frame=  120 fps= 12 q=5.0 size=    4608kB time=00:00:04.76 bitrate=7930.4kbits/s speed=0.492x    frame=  127 fps= 12 q=5.0 size=    4864kB time=00:00:05.04 bitrate=7905.9kbits/s speed=0.492x    frame=  134 fps= 12 q=5.0 size=    5120kB time=00:00:05.32 bitrate=7884.0kbits/s speed=0.492x    frame=  141 fps= 12 q=5.0 size=    5376kB time=00:00:05.60 bitrate=7864.3kbits/s speed=0.494x    frame=  148 fps= 12 q=5.0 size=    5632kB time=00:00:05.88 bitrate=7846.4kbits/s speed=0.495x    frame=  154 fps= 12 q=5.0 size=    5632kB time=00:00:06.12 bitrate=7538.7kbits/s speed=0.492x    frame=  160 fps= 12 q=5.0 size=    5888kB time=00:00:06.36 bitrate=7584.0kbits/s speed=0.49x    frame=  166 fps= 12 q=5.0 size=    6144kB time=00:00:06.60 bitrate=7626.0kbits/s speed=0.486x    frame=  172 fps= 12 q=5.0 size=    6400kB time=00:00:06.84 bitrate=7665.0kbits/s speed=0.482x    frame=  178 fps= 12 q=5.0 size=    6400kB time=00:00:07.08 bitrate=7405.2kbits/s speed=0.48x    frame=  185 fps= 12 q=5.0 size=    6656kB time=00:00:07.36 bitrate=7408.4kbits/s speed=0.48x    frame=  191 fps= 12 q=5.0 size=    6912kB time=00:00:07.60 bitrate=7450.4kbits/s speed=0.479x    frame=  197 fps= 12 q=5.0 size=    7168kB time=00:00:07.84 bitrate=7489.8kbits/s speed=0.478x    frame=  204 fps= 12 q=5.0 size=    7168kB time=00:00:08.12 bitrate=7231.5kbits/s speed=0.479x    frame=  211 fps= 12 q=5.0 size=    7680kB time=00:00:08.40 bitrate=7489.8kbits/s speed=0.48x    frame=  217 fps= 12 q=5.0 size=    7680kB time=00:00:08.64 bitrate=7281.8kbits/s speed=0.48x    frame=  225 fps= 12 q=5.0 size=    7936kB time=00:00:08.96 bitrate=7255.7kbits/s speed=0.484x    frame=  232 fps= 12 q=5.0 size=    8448kB time=00:00:09.24 bitrate=7489.8kbits/s speed=0.485x    frame=  241 fps= 12 q=5.0 size=    8704kB time=00:00:09.60 bitrate=7427.4kbits/s speed=0.49x    frame=  250 fps= 12 q=5.0 size=    9216kB time=00:00:09.96 bitrate=7580.0kbits/s speed=0.495x    frame=  259 fps= 13 q=5.0 size=    9472kB time=00:00:10.32 bitrate=7518.8kbits/s speed= 0.5x    frame=  266 fps= 13 q=5.0 size=    9728kB time=00:00:10.60 bitrate=7518.1kbits/s speed= 0.5x    frame=  274 fps= 13 q=5.0 size=   10240kB time=00:00:10.92 bitrate=7681.9kbits/s speed=0.502x    frame=  282 fps= 13 q=5.0 size=   10496kB time=00:00:11.24 bitrate=7649.7kbits/s speed=0.505x    frame=  290 fps= 13 q=5.0 size=   10752kB time=00:00:11.56 bitrate=7619.4kbits/s speed=0.506x    frame=  297 fps= 13 q=5.0 size=   11008kB time=00:00:11.84 bitrate=7616.3kbits/s speed=0.506x    frame=  306 fps= 13 q=5.0 size=   11264kB time=00:00:12.20 bitrate=7563.5kbits/s speed=0.511x    frame=  314 fps= 13 q=5.0 size=   11520kB time=00:00:12.52 bitrate=7537.7kbits/s speed=0.513x    frame=  322 fps= 13 q=5.0 size=   11776kB time=00:00:12.84 bitrate=7513.1kbits/s speed=0.514x    frame=  329 fps= 13 q=5.0 size=   11776kB time=00:00:13.12 bitrate=7352.8kbits/s speed=0.515x    frame=  336 fps= 13 q=5.0 size=   12032kB time=00:00:13.40 bitrate=7355.7kbits/s speed=0.515x    frame=  344 fps= 13 q=5.0 size=   12288kB time=00:00:13.72 bitrate=7337.0kbits/s speed=0.516x    frame=  352 fps= 13 q=5.0 size=   12544kB time=00:00:14.04 bitrate=7319.1kbits/s speed=0.518x    frame=  360 fps= 13 q=5.0 size=   12800kB time=00:00:14.36 bitrate=7302.0kbits/s speed=0.519x    frame=  360 fps= 13 q=5.0 Lsize=   12875kB time=00:00:14.36 bitrate=7344.8kbits/s speed=0.519x    
video:12873kB audio:0kB subtitle:0kB other streams:0kB global headers:0kB muxing overhead: 0.019702%
ffmpeg version 4.2.7-0ubuntu0.1 Copyright (c) 2000-2022 the FFmpeg developers
  built with gcc 9 (Ubuntu 9.4.0-1ubuntu1~20.04.1)
  configuration: --prefix=/usr --extra-version=0ubuntu0.1 --toolchain=hardened --libdir=/usr/lib/x86_64-linux-gnu --incdir=/usr/include/x86_64-linux-gnu --arch=amd64 --enable-gpl --disable-stripping --enable-avresample --disable-filter=resample --enable-avisynth --enable-gnutls --enable-ladspa --enable-libaom --enable-libass --enable-libbluray --enable-libbs2b --enable-libcaca --enable-libcdio --enable-libcodec2 --enable-libflite --enable-libfontconfig --enable-libfreetype --enable-libfribidi --enable-libgme --enable-libgsm --enable-libjack --enable-libmp3lame --enable-libmysofa --enable-libopenjpeg --enable-libopenmpt --enable-libopus --enable-libpulse --enable-librsvg --enable-librubberband --enable-libshine --enable-libsnappy --enable-libsoxr --enable-libspeex --enable-libssh --enable-libtheora --enable-libtwolame --enable-libvidstab --enable-libvorbis --enable-libvpx --enable-libwavpack --enable-libwebp --enable-libx265 --enable-libxml2 --enable-libxvid --enable-libzmq --enable-libzvbi --enable-lv2 --enable-omx --enable-openal --enable-opencl --enable-opengl --enable-sdl2 --enable-libdc1394 --enable-libdrm --enable-libiec61883 --enable-nvenc --enable-chromaprint --enable-frei0r --enable-libx264 --enable-shared
  libavutil      56. 31.100 / 56. 31.100
  libavcodec     58. 54.100 / 58. 54.100
  libavformat    58. 29.100 / 58. 29.100
  libavdevice    58.  8.100 / 58.  8.100
  libavfilter     7. 57.100 /  7. 57.100
  libavresample   4.  0.  0 /  4.  0.  0
  libswscale      5.  5.100 /  5.  5.100
  libswresample   3.  5.100 /  3.  5.100
  libpostproc    55.  5.100 / 55.  5.100
Input #0, rawvideo, from 'pipe:':
  Duration: N/A, start: 0.000000, bitrate: 552960 kb/s
    Stream #0:0: Video: rawvideo (RGB[24] / 0x18424752), rgb24, 1280x720, 552960 kb/s, 25 tbr, 25 tbn, 25 tbc
Stream mapping:
  Stream #0:0 -> #0:0 (rawvideo (native) -> mpeg4 (native))
Output #0, mp4, to '../sout/output_sob_baseline.mp4':
  Metadata:
    encoder         : Lavf58.29.100
    Stream #0:0: Video: mpeg4 (mp4v / 0x7634706D), yuv420p, 1280x720, q=2-31, 200 kb/s, 25 fps, 12800 tbn, 25 tbc
    Metadata:
      encoder         : Lavc58.54.100 mpeg4
    Side data:
      cpb: bitrate max/min/avg: 0/0/200000 buffer size: 0 vbv_delay: -1
frame=    8 fps=0.0 q=5.0 size=     256kB time=00:00:00.28 bitrate=7489.0kbits/s speed=0.473x    frame=   14 fps= 13 q=5.0 size=     512kB time=00:00:00.52 bitrate=8065.4kbits/s speed=0.47x    frame=   22 fps= 13 q=5.0 size=     768kB time=00:00:00.84 bitrate=7489.6kbits/s speed=0.504x    frame=   30 fps= 13 q=5.0 size=    1024kB time=00:00:01.16 bitrate=7231.4kbits/s speed=0.522x    frame=   37 fps= 14 q=5.0 size=    1280kB time=00:00:01.44 bitrate=7281.6kbits/s speed=0.526x    frame=   45 fps= 14 q=5.0 size=    1792kB time=00:00:01.76 bitrate=8340.8kbits/s speed=0.534x    frame=   51 fps= 13 q=5.0 size=    2048kB time=00:00:02.00 bitrate=8388.5kbits/s speed=0.524x    frame=   57 fps= 13 q=5.0 size=    2304kB time=00:00:02.24 bitrate=8425.9kbits/s speed=0.515x    frame=   63 fps= 13 q=5.0 size=    2560kB time=00:00:02.48 bitrate=8456.1kbits/s speed=0.505x    frame=   70 fps= 13 q=5.0 size=    2816kB time=00:00:02.76 bitrate=8358.1kbits/s speed=0.504x    frame=   78 fps= 13 q=5.0 size=    3072kB time=00:00:03.08 bitrate=8170.6kbits/s speed=0.509x    frame=   85 fps= 13 q=5.0 size=    3328kB time=00:00:03.36 bitrate=8113.9kbits/s speed=0.511x    frame=   92 fps= 13 q=5.0 size=    3584kB time=00:00:03.64 bitrate=8065.9kbits/s speed=0.51x    frame=   99 fps= 13 q=5.0 size=    3840kB time=00:00:03.92 bitrate=8024.7kbits/s speed=0.512x    frame=  106 fps= 13 q=5.0 size=    4096kB time=00:00:04.20 bitrate=7989.1kbits/s speed=0.513x    frame=  113 fps= 13 q=5.0 size=    4352kB time=00:00:04.48 bitrate=7957.9kbits/s speed=0.513x    frame=  120 fps= 13 q=5.0 size=    4608kB time=00:00:04.76 bitrate=7930.4kbits/s speed=0.513x    frame=  127 fps= 13 q=5.0 size=    4864kB time=00:00:05.04 bitrate=7905.9kbits/s speed=0.512x    frame=  134 fps= 13 q=5.0 size=    5120kB time=00:00:05.32 bitrate=7884.0kbits/s speed=0.513x    frame=  141 fps= 13 q=5.0 size=    5376kB time=00:00:05.60 bitrate=7864.3kbits/s speed=0.513x    frame=  147 fps= 13 q=5.0 size=    5632kB time=00:00:05.84 bitrate=7900.2kbits/s speed=0.511x    frame=  153 fps= 13 q=5.0 size=    5632kB time=00:00:06.08 bitrate=7588.3kbits/s speed=0.51x    frame=  160 fps= 13 q=5.0 size=    5888kB time=00:00:06.36 bitrate=7584.0kbits/s speed=0.51x    frame=  167 fps= 13 q=5.0 size=    6144kB time=00:00:06.64 bitrate=7580.0kbits/s speed=0.51x    frame=  174 fps= 13 q=5.0 size=    6400kB time=00:00:06.92 bitrate=7576.4kbits/s speed=0.509x    frame=  181 fps= 13 q=5.0 size=    6656kB time=00:00:07.20 bitrate=7573.0kbits/s speed=0.51x    frame=  188 fps= 13 q=5.0 size=    6912kB time=00:00:07.48 bitrate=7569.9kbits/s speed=0.51x    frame=  195 fps= 13 q=5.0 size=    6912kB time=00:00:07.76 bitrate=7296.8kbits/s speed=0.51x    frame=  202 fps= 13 q=5.0 size=    7168kB time=00:00:08.04 bitrate=7303.5kbits/s speed=0.51x    frame=  209 fps= 13 q=5.0 size=    7424kB time=00:00:08.32 bitrate=7309.8kbits/s speed=0.509x    frame=  215 fps= 13 q=5.0 size=    7680kB time=00:00:08.56 bitrate=7349.8kbits/s speed=0.508x    frame=  221 fps= 13 q=5.0 size=    7936kB time=00:00:08.80 bitrate=7387.7kbits/s speed=0.507x    frame=  228 fps= 13 q=5.0 size=    8192kB time=00:00:09.08 bitrate=7390.8kbits/s speed=0.507x    frame=  236 fps= 13 q=5.0 size=    8448kB time=00:00:09.40 bitrate=7362.3kbits/s speed=0.51x    frame=  243 fps= 13 q=5.0 size=    8960kB time=00:00:09.68 bitrate=7582.7kbits/s speed=0.511x    frame=  250 fps= 13 q=5.0 size=    9216kB time=00:00:09.96 bitrate=7580.0kbits/s speed=0.512x    frame=  257 fps= 13 q=5.0 size=    9472kB time=00:00:10.24 bitrate=7577.6kbits/s speed=0.513x    frame=  264 fps= 13 q=5.0 size=    9728kB time=00:00:10.52 bitrate=7575.2kbits/s speed=0.514x    frame=  271 fps= 13 q=5.0 size=    9984kB time=00:00:10.80 bitrate=7573.0kbits/s speed=0.515x    frame=  279 fps= 13 q=5.0 size=   10240kB time=00:00:11.12 bitrate=7543.7kbits/s speed=0.517x    frame=  288 fps= 13 q=5.0 size=   10496kB time=00:00:11.48 bitrate=7489.8kbits/s speed=0.522x    frame=  296 fps= 13 q=5.0 size=   10752kB time=00:00:11.80 bitrate=7464.4kbits/s speed=0.523x    frame=  305 fps= 13 q=5.0 size=   11264kB time=00:00:12.16 bitrate=7588.4kbits/s speed=0.526x    frame=  314 fps= 13 q=5.0 size=   11520kB time=00:00:12.52 bitrate=7537.7kbits/s speed=0.529x    frame=  322 fps= 13 q=5.0 size=   11776kB time=00:00:12.84 bitrate=7513.1kbits/s speed=0.529x    frame=  330 fps= 13 q=5.0 size=   12032kB time=00:00:13.16 bitrate=7489.8kbits/s speed=0.53x    frame=  339 fps= 13 q=5.0 size=   12288kB time=00:00:13.52 bitrate=7445.5kbits/s speed=0.533x    frame=  347 fps= 13 q=5.0 size=   12288kB time=00:00:13.84 bitrate=7273.3kbits/s speed=0.534x    frame=  354 fps= 13 q=5.0 size=   12544kB time=00:00:14.12 bitrate=7277.6kbits/s speed=0.534x    frame=  360 fps= 13 q=5.0 size=   12800kB time=00:00:14.36 bitrate=7302.0kbits/s speed=0.532x    frame=  360 fps= 13 q=5.0 Lsize=   12875kB time=00:00:14.36 bitrate=7344.8kbits/s speed=0.532x    
video:12873kB audio:0kB subtitle:0kB other streams:0kB global headers:0kB muxing overhead: 0.019702%
ffmpeg version 4.2.7-0ubuntu0.1 Copyright (c) 2000-2022 the FFmpeg developers
  built with gcc 9 (Ubuntu 9.4.0-1ubuntu1~20.04.1)
  configuration: --prefix=/usr --extra-version=0ubuntu0.1 --toolchain=hardened --libdir=/usr/lib/x86_64-linux-gnu --incdir=/usr/include/x86_64-linux-gnu --arch=amd64 --enable-gpl --disable-stripping --enable-avresample --disable-filter=resample --enable-avisynth --enable-gnutls --enable-ladspa --enable-libaom --enable-libass --enable-libbluray --enable-libbs2b --enable-libcaca --enable-libcdio --enable-libcodec2 --enable-libflite --enable-libfontconfig --enable-libfreetype --enable-libfribidi --enable-libgme --enable-libgsm --enable-libjack --enable-libmp3lame --enable-libmysofa --enable-libopenjpeg --enable-libopenmpt --enable-libopus --enable-libpulse --enable-librsvg --enable-librubberband --enable-libshine --enable-libsnappy --enable-libsoxr --enable-libspeex --enable-libssh --enable-libtheora --enable-libtwolame --enable-libvidstab --enable-libvorbis --enable-libvpx --enable-libwavpack --enable-libwebp --enable-libx265 --enable-libxml2 --enable-libxvid --enable-libzmq --enable-libzvbi --enable-lv2 --enable-omx --enable-openal --enable-opencl --enable-opengl --enable-sdl2 --enable-libdc1394 --enable-libdrm --enable-libiec61883 --enable-nvenc --enable-chromaprint --enable-frei0r --enable-libx264 --enable-shared
  libavutil      56. 31.100 / 56. 31.100
  libavcodec     58. 54.100 / 58. 54.100
  libavformat    58. 29.100 / 58. 29.100
  libavdevice    58.  8.100 / 58.  8.100
  libavfilter     7. 57.100 /  7. 57.100
  libavresample   4.  0.  0 /  4.  0.  0
  libswscale      5.  5.100 /  5.  5.100
  libswresample   3.  5.100 /  3.  5.100
  libpostproc    55.  5.100 / 55.  5.100
Input #0, rawvideo, from 'pipe:':
  Duration: N/A, start: 0.000000, bitrate: 552960 kb/s
    Stream #0:0: Video: rawvideo (RGB[24] / 0x18424752), rgb24, 1280x720, 552960 kb/s, 25 tbr, 25 tbn, 25 tbc
Stream mapping:
  Stream #0:0 -> #0:0 (rawvideo (native) -> mpeg4 (native))
Output #0, mp4, to '../sout/output_sob_baseline.mp4':
  Metadata:
    encoder         : Lavf58.29.100
    Stream #0:0: Video: mpeg4 (mp4v / 0x7634706D), yuv420p, 1280x720, q=2-31, 200 kb/s, 25 fps, 12800 tbn, 25 tbc
    Metadata:
      encoder         : Lavc58.54.100 mpeg4
    Side data:
      cpb: bitrate max/min/avg: 0/0/200000 buffer size: 0 vbv_delay: -1
frame=    7 fps=0.0 q=5.0 size=     256kB time=00:00:00.24 bitrate=8736.8kbits/s speed=0.428x    frame=   14 fps= 13 q=5.0 size=     512kB time=00:00:00.52 bitrate=8065.4kbits/s speed=0.469x    frame=   21 fps= 13 q=5.0 size=     768kB time=00:00:00.80 bitrate=7864.0kbits/s speed=0.482x    frame=   28 fps= 13 q=5.0 size=    1024kB time=00:00:01.08 bitrate=7767.0kbits/s speed=0.484x    frame=   35 fps= 13 q=5.0 size=    1280kB time=00:00:01.36 bitrate=7709.9kbits/s speed=0.494x    frame=   43 fps= 13 q=5.0 size=    1536kB time=00:00:01.68 bitrate=7489.7kbits/s speed=0.507x    frame=   50 fps= 13 q=5.0 size=    2048kB time=00:00:01.96 bitrate=8559.6kbits/s speed=0.509x    frame=   57 fps= 13 q=5.0 size=    2304kB time=00:00:02.24 bitrate=8425.9kbits/s speed=0.505x    frame=   63 fps= 13 q=5.0 size=    2560kB time=00:00:02.48 bitrate=8456.1kbits/s speed= 0.5x    frame=   70 fps= 13 q=5.0 size=    2816kB time=00:00:02.76 bitrate=8358.1kbits/s speed=0.499x    frame=   77 fps= 13 q=5.0 size=    3072kB time=00:00:03.04 bitrate=8278.1kbits/s speed= 0.5x    frame=   83 fps= 13 q=5.0 size=    3328kB time=00:00:03.28 bitrate=8311.8kbits/s speed=0.496x    frame=   89 fps= 12 q=5.0 size=    3584kB time=00:00:03.52 bitrate=8340.9kbits/s speed=0.491x    frame=   95 fps= 12 q=5.0 size=    3840kB time=00:00:03.76 bitrate=8366.2kbits/s speed=0.486x    frame=  101 fps= 12 q=5.0 size=    4096kB time=00:00:04.00 bitrate=8388.5kbits/s speed=0.485x    frame=  108 fps= 12 q=5.0 size=    4096kB time=00:00:04.28 bitrate=7839.8kbits/s speed=0.486x    frame=  114 fps= 12 q=5.0 size=    4352kB time=00:00:04.52 bitrate=7887.5kbits/s speed=0.484x    frame=  120 fps= 12 q=5.0 size=    4608kB time=00:00:04.76 bitrate=7930.4kbits/s speed=0.481x    frame=  126 fps= 12 q=5.0 size=    4864kB time=00:00:05.00 bitrate=7969.1kbits/s speed=0.481x    frame=  132 fps= 12 q=5.0 size=    5120kB time=00:00:05.24 bitrate=8004.3kbits/s speed=0.479x    frame=  138 fps= 12 q=5.0 size=    5376kB time=00:00:05.48 bitrate=8036.5kbits/s speed=0.477x    frame=  144 fps= 12 q=5.0 size=    5376kB time=00:00:05.72 bitrate=7699.3kbits/s speed=0.474x    frame=  150 fps= 12 q=5.0 size=    5632kB time=00:00:05.96 bitrate=7741.1kbits/s speed=0.474x    frame=  156 fps= 12 q=5.0 size=    5888kB time=00:00:06.20 bitrate=7779.7kbits/s speed=0.474x    frame=  163 fps= 12 q=5.0 size=    6144kB time=00:00:06.48 bitrate=7767.2kbits/s speed=0.476x    frame=  170 fps= 12 q=5.0 size=    6144kB time=00:00:06.76 bitrate=7445.5kbits/s speed=0.477x    frame=  177 fps= 12 q=5.0 size=    6400kB time=00:00:07.04 bitrate=7447.2kbits/s speed=0.479x    frame=  185 fps= 12 q=5.0 size=    6656kB time=00:00:07.36 bitrate=7408.4kbits/s speed=0.482x    frame=  192 fps= 12 q=5.0 size=    6912kB time=00:00:07.64 bitrate=7411.4kbits/s speed=0.484x    frame=  200 fps= 12 q=5.0 size=    7168kB time=00:00:07.96 bitrate=7376.9kbits/s speed=0.487x    frame=  208 fps= 12 q=5.0 size=    7424kB time=00:00:08.28 bitrate=7345.1kbits/s speed=0.49x    frame=  216 fps= 12 q=5.0 size=    7680kB time=00:00:08.60 bitrate=7315.6kbits/s speed=0.493x    frame=  224 fps= 12 q=5.0 size=    7936kB time=00:00:08.92 bitrate=7288.3kbits/s speed=0.495x    frame=  231 fps= 12 q=5.0 size=    8448kB time=00:00:09.20 bitrate=7522.4kbits/s speed=0.496x    frame=  239 fps= 13 q=5.0 size=    8704kB time=00:00:09.52 bitrate=7489.8kbits/s speed=0.499x    frame=  249 fps= 13 q=5.0 size=    8960kB time=00:00:09.92 bitrate=7399.2kbits/s speed=0.505x    frame=  256 fps= 13 q=5.0 size=    9472kB time=00:00:10.20 bitrate=7607.3kbits/s speed=0.506x    frame=  263 fps= 13 q=5.0 size=    9728kB time=00:00:10.48 bitrate=7604.2kbits/s speed=0.506x    frame=  270 fps= 13 q=5.0 size=    9984kB time=00:00:10.76 bitrate=7601.2kbits/s speed=0.506x    frame=  277 fps= 13 q=5.0 size=   10240kB time=00:00:11.04 bitrate=7598.4kbits/s speed=0.506x    frame=  284 fps= 13 q=5.0 size=   10496kB time=00:00:11.32 bitrate=7595.7kbits/s speed=0.507x    frame=  291 fps= 13 q=5.0 size=   10752kB time=00:00:11.60 bitrate=7593.1kbits/s speed=0.508x    frame=  299 fps= 13 q=5.0 size=   11008kB time=00:00:11.92 bitrate=7565.2kbits/s speed=0.51x    frame=  306 fps= 13 q=5.0 size=   11264kB time=00:00:12.20 bitrate=7563.5kbits/s speed=0.51x    frame=  314 fps= 13 q=5.0 size=   11520kB time=00:00:12.52 bitrate=7537.7kbits/s speed=0.511x    frame=  322 fps= 13 q=5.0 size=   11776kB time=00:00:12.84 bitrate=7513.1kbits/s speed=0.512x    frame=  329 fps= 13 q=5.0 size=   11776kB time=00:00:13.12 bitrate=7352.8kbits/s speed=0.512x    frame=  336 fps= 13 q=5.0 size=   12032kB time=00:00:13.40 bitrate=7355.7kbits/s speed=0.513x    frame=  345 fps= 13 q=5.0 size=   12288kB time=00:00:13.76 bitrate=7315.6kbits/s speed=0.516x    frame=  353 fps= 13 q=5.0 size=   12544kB time=00:00:14.08 bitrate=7298.3kbits/s speed=0.518x    frame=  360 fps= 13 q=5.0 size=   12800kB time=00:00:14.36 bitrate=7302.0kbits/s speed=0.517x    frame=  360 fps= 13 q=5.0 Lsize=   12875kB time=00:00:14.36 bitrate=7344.8kbits/s speed=0.516x    
video:12873kB audio:0kB subtitle:0kB other streams:0kB global headers:0kB muxing overhead: 0.019702%
ffmpeg version 4.2.7-0ubuntu0.1 Copyright (c) 2000-2022 the FFmpeg developers
  built with gcc 9 (Ubuntu 9.4.0-1ubuntu1~20.04.1)
  configuration: --prefix=/usr --extra-version=0ubuntu0.1 --toolchain=hardened --libdir=/usr/lib/x86_64-linux-gnu --incdir=/usr/include/x86_64-linux-gnu --arch=amd64 --enable-gpl --disable-stripping --enable-avresample --disable-filter=resample --enable-avisynth --enable-gnutls --enable-ladspa --enable-libaom --enable-libass --enable-libbluray --enable-libbs2b --enable-libcaca --enable-libcdio --enable-libcodec2 --enable-libflite --enable-libfontconfig --enable-libfreetype --enable-libfribidi --enable-libgme --enable-libgsm --enable-libjack --enable-libmp3lame --enable-libmysofa --enable-libopenjpeg --enable-libopenmpt --enable-libopus --enable-libpulse --enable-librsvg --enable-librubberband --enable-libshine --enable-libsnappy --enable-libsoxr --enable-libspeex --enable-libssh --enable-libtheora --enable-libtwolame --enable-libvidstab --enable-libvorbis --enable-libvpx --enable-libwavpack --enable-libwebp --enable-libx265 --enable-libxml2 --enable-libxvid --enable-libzmq --enable-libzvbi --enable-lv2 --enable-omx --enable-openal --enable-opencl --enable-opengl --enable-sdl2 --enable-libdc1394 --enable-libdrm --enable-libiec61883 --enable-nvenc --enable-chromaprint --enable-frei0r --enable-libx264 --enable-shared
  libavutil      56. 31.100 / 56. 31.100
  libavcodec     58. 54.100 / 58. 54.100
  libavformat    58. 29.100 / 58. 29.100
  libavdevice    58.  8.100 / 58.  8.100
  libavfilter     7. 57.100 /  7. 57.100
  libavresample   4.  0.  0 /  4.  0.  0
  libswscale      5.  5.100 /  5.  5.100
  libswresample   3.  5.100 /  3.  5.100
  libpostproc    55.  5.100 / 55.  5.100
Input #0, rawvideo, from 'pipe:':
  Duration: N/A, start: 0.000000, bitrate: 552960 kb/s
    Stream #0:0: Video: rawvideo (RGB[24] / 0x18424752), rgb24, 1280x720, 552960 kb/s, 25 tbr, 25 tbn, 25 tbc
Stream mapping:
  Stream #0:0 -> #0:0 (rawvideo (native) -> mpeg4 (native))
Output #0, mp4, to 'sout/output_sob_baseline.mp4':
  Metadata:
    encoder         : Lavf58.29.100
    Stream #0:0: Video: mpeg4 (mp4v / 0x7634706D), yuv420p, 1280x720, q=2-31, 200 kb/s, 25 fps, 12800 tbn, 25 tbc
    Metadata:
      encoder         : Lavc58.54.100 mpeg4
    Side data:
      cpb: bitrate max/min/avg: 0/0/200000 buffer size: 0 vbv_delay: -1
frame=    8 fps=0.0 q=5.0 size=     256kB time=00:00:00.28 bitrate=7489.0kbits/s speed= 0.5x    frame=   15 fps= 13 q=5.0 size=     512kB time=00:00:00.56 bitrate=7489.4kbits/s speed=0.502x    frame=   22 fps= 14 q=5.0 size=     768kB time=00:00:00.84 bitrate=7489.6kbits/s speed=0.516x    frame=   29 fps= 13 q=5.0 size=    1024kB time=00:00:01.12 bitrate=7489.6kbits/s speed=0.52x    frame=   36 fps= 13 q=5.0 size=    1280kB time=00:00:01.40 bitrate=7489.7kbits/s speed=0.518x    frame=   43 fps= 13 q=5.0 size=    1536kB time=00:00:01.68 bitrate=7489.7kbits/s speed=0.515x    frame=   50 fps= 13 q=5.0 size=    2048kB time=00:00:01.96 bitrate=8559.6kbits/s speed=0.517x    frame=   57 fps= 13 q=5.0 size=    2304kB time=00:00:02.24 bitrate=8425.9kbits/s speed=0.52x    frame=   64 fps= 13 q=5.0 size=    2560kB time=00:00:02.52 bitrate=8321.9kbits/s speed=0.523x    frame=   71 fps= 13 q=5.0 size=    2816kB time=00:00:02.80 bitrate=8238.7kbits/s speed=0.523x    frame=   77 fps= 13 q=5.0 size=    3072kB time=00:00:03.04 bitrate=8278.1kbits/s speed=0.519x    frame=   83 fps= 13 q=5.0 size=    3328kB time=00:00:03.28 bitrate=8311.8kbits/s speed=0.507x    frame=   90 fps= 13 q=5.0 size=    3584kB time=00:00:03.56 bitrate=8247.1kbits/s speed=0.511x    frame=   97 fps= 13 q=5.0 size=    3840kB time=00:00:03.84 bitrate=8191.9kbits/s speed=0.513x    frame=  106 fps= 13 q=5.0 size=    4096kB time=00:00:04.20 bitrate=7989.1kbits/s speed=0.523x    frame=  114 fps= 13 q=5.0 size=    4352kB time=00:00:04.52 bitrate=7887.5kbits/s speed=0.527x    frame=  122 fps= 13 q=5.0 size=    4864kB time=00:00:04.84 bitrate=8232.6kbits/s speed=0.532x    frame=  130 fps= 13 q=5.0 size=    4864kB time=00:00:05.16 bitrate=7722.0kbits/s speed=0.535x    frame=  139 fps= 14 q=5.0 size=    5376kB time=00:00:05.52 bitrate=7978.2kbits/s speed=0.541x    frame=  147 fps= 14 q=5.0 size=    5632kB time=00:00:05.84 bitrate=7900.2kbits/s speed=0.545x    frame=  155 fps= 14 q=5.0 size=    5888kB time=00:00:06.16 bitrate=7830.2kbits/s speed=0.546x    frame=  162 fps= 14 q=5.0 size=    5888kB time=00:00:06.44 bitrate=7489.8kbits/s speed=0.546x    frame=  170 fps= 14 q=5.0 size=    6144kB time=00:00:06.76 bitrate=7445.5kbits/s speed=0.549x    frame=  177 fps= 14 q=5.0 size=    6400kB time=00:00:07.04 bitrate=7447.2kbits/s speed=0.548x    frame=  184 fps= 14 q=5.0 size=    6656kB time=00:00:07.32 bitrate=7448.9kbits/s speed=0.548x    frame=  194 fps= 14 q=5.0 size=    6912kB time=00:00:07.72 bitrate=7334.6kbits/s speed=0.556x    frame=  203 fps= 14 q=5.0 size=    7168kB time=00:00:08.08 bitrate=7267.3kbits/s speed=0.559x    frame=  211 fps= 14 q=5.0 size=    7680kB time=00:00:08.40 bitrate=7489.8kbits/s speed=0.561x    frame=  220 fps= 14 q=5.0 size=    7936kB time=00:00:08.76 bitrate=7421.4kbits/s speed=0.565x    frame=  229 fps= 14 q=5.0 size=    8192kB time=00:00:09.12 bitrate=7358.4kbits/s speed=0.568x    frame=  237 fps= 14 q=5.0 size=    8448kB time=00:00:09.44 bitrate=7331.1kbits/s speed=0.569x    frame=  243 fps= 14 q=5.0 size=    8960kB time=00:00:09.68 bitrate=7582.7kbits/s speed=0.564x    frame=  251 fps= 14 q=5.0 size=    9216kB time=00:00:10.00 bitrate=7549.7kbits/s speed=0.564x    frame=  258 fps= 14 q=5.0 size=    9472kB time=00:00:10.28 bitrate=7548.1kbits/s speed=0.562x    frame=  264 fps= 14 q=5.0 size=    9728kB time=00:00:10.52 bitrate=7575.2kbits/s speed=0.558x    frame=  272 fps= 14 q=5.0 size=    9984kB time=00:00:10.84 bitrate=7545.1kbits/s speed=0.558x    frame=  280 fps= 14 q=5.0 size=   10496kB time=00:00:11.16 bitrate=7704.6kbits/s speed=0.559x    frame=  286 fps= 14 q=5.0 size=   10496kB time=00:00:11.40 bitrate=7542.4kbits/s speed=0.556x    frame=  294 fps= 14 q=5.0 size=   10752kB time=00:00:11.72 bitrate=7515.4kbits/s speed=0.556x    frame=  302 fps= 14 q=5.0 size=   11008kB time=00:00:12.04 bitrate=7489.8kbits/s speed=0.557x    frame=  310 fps= 14 q=5.0 size=   11264kB time=00:00:12.36 bitrate=7465.6kbits/s speed=0.557x    frame=  317 fps= 14 q=5.0 size=   11520kB time=00:00:12.64 bitrate=7466.1kbits/s speed=0.557x    frame=  324 fps= 14 q=5.0 size=   11776kB time=00:00:12.92 bitrate=7466.6kbits/s speed=0.556x    frame=  331 fps= 14 q=5.0 size=   12032kB time=00:00:13.20 bitrate=7467.1kbits/s speed=0.555x    frame=  339 fps= 14 q=5.0 size=   12288kB time=00:00:13.52 bitrate=7445.5kbits/s speed=0.555x    frame=  348 fps= 14 q=5.0 size=   12544kB time=00:00:13.88 bitrate=7403.5kbits/s speed=0.558x    frame=  357 fps= 14 q=5.0 size=   12544kB time=00:00:14.24 bitrate=7216.3kbits/s speed=0.561x    frame=  360 fps= 14 q=5.0 Lsize=   12875kB time=00:00:14.36 bitrate=7344.8kbits/s speed=0.56x    
video:12873kB audio:0kB subtitle:0kB other streams:0kB global headers:0kB muxing overhead: 0.019702%
ffmpeg version 4.2.7-0ubuntu0.1 Copyright (c) 2000-2022 the FFmpeg developers
  built with gcc 9 (Ubuntu 9.4.0-1ubuntu1~20.04.1)
  configuration: --prefix=/usr --extra-version=0ubuntu0.1 --toolchain=hardened --libdir=/usr/lib/x86_64-linux-gnu --incdir=/usr/include/x86_64-linux-gnu --arch=amd64 --enable-gpl --disable-stripping --enable-avresample --disable-filter=resample --enable-avisynth --enable-gnutls --enable-ladspa --enable-libaom --enable-libass --enable-libbluray --enable-libbs2b --enable-libcaca --enable-libcdio --enable-libcodec2 --enable-libflite --enable-libfontconfig --enable-libfreetype --enable-libfribidi --enable-libgme --enable-libgsm --enable-libjack --enable-libmp3lame --enable-libmysofa --enable-libopenjpeg --enable-libopenmpt --enable-libopus --enable-libpulse --enable-librsvg --enable-librubberband --enable-libshine --enable-libsnappy --enable-libsoxr --enable-libspeex --enable-libssh --enable-libtheora --enable-libtwolame --enable-libvidstab --enable-libvorbis --enable-libvpx --enable-libwavpack --enable-libwebp --enable-libx265 --enable-libxml2 --enable-libxvid --enable-libzmq --enable-libzvbi --enable-lv2 --enable-omx --enable-openal --enable-opencl --enable-opengl --enable-sdl2 --enable-libdc1394 --enable-libdrm --enable-libiec61883 --enable-nvenc --enable-chromaprint --enable-frei0r --enable-libx264 --enable-shared
  libavutil      56. 31.100 / 56. 31.100
  libavcodec     58. 54.100 / 58. 54.100
  libavformat    58. 29.100 / 58. 29.100
  libavdevice    58.  8.100 / 58.  8.100
  libavfilter     7. 57.100 /  7. 57.100
  libavresample   4.  0.  0 /  4.  0.  0
  libswscale      5.  5.100 /  5.  5.100
  libswresample   3.  5.100 /  3.  5.100
  libpostproc    55.  5.100 / 55.  5.100
Input #0, rawvideo, from 'pipe:':
  Duration: N/A, start: 0.000000, bitrate: 552960 kb/s
    Stream #0:0: Video: rawvideo (RGB[24] / 0x18424752), rgb24, 1280x720, 552960 kb/s, 25 tbr, 25 tbn, 25 tbc
Stream mapping:
  Stream #0:0 -> #0:0 (rawvideo (native) -> mpeg4 (native))
Output #0, mp4, to 'sout/output_sob_baseline.mp4':
  Metadata:
    encoder         : Lavf58.29.100
    Stream #0:0: Video: mpeg4 (mp4v / 0x7634706D), yuv420p, 1280x720, q=2-31, 200 kb/s, 25 fps, 12800 tbn, 25 tbc
    Metadata:
      encoder         : Lavc58.54.100 mpeg4
    Side data:
      cpb: bitrate max/min/avg: 0/0/200000 buffer size: 0 vbv_delay: -1
frame=    8 fps=0.0 q=5.0 size=     256kB time=00:00:00.28 bitrate=7489.0kbits/s speed=0.514x    frame=   15 fps= 14 q=5.0 size=     512kB time=00:00:00.56 bitrate=7489.4kbits/s speed=0.527x    frame=   21 fps= 13 q=5.0 size=     768kB time=00:00:00.80 bitrate=7864.0kbits/s speed=0.511x    frame=   29 fps= 14 q=5.0 size=    1024kB time=00:00:01.12 bitrate=7489.6kbits/s speed=0.537x    frame=   37 fps= 14 q=5.0 size=    1280kB time=00:00:01.44 bitrate=7281.6kbits/s speed=0.545x    frame=   45 fps= 14 q=5.0 size=    1792kB time=00:00:01.76 bitrate=8340.8kbits/s speed=0.552x    frame=   52 fps= 14 q=5.0 size=    2048kB time=00:00:02.04 bitrate=8224.0kbits/s speed=0.552x    frame=   59 fps= 14 q=5.0 size=    2304kB time=00:00:02.32 bitrate=8135.4kbits/s speed=0.545x    frame=   66 fps= 14 q=5.0 size=    2560kB time=00:00:02.60 bitrate=8065.9kbits/s speed=0.543x    frame=   73 fps= 14 q=5.0 size=    2816kB time=00:00:02.88 bitrate=8009.9kbits/s speed=0.544x    frame=   80 fps= 14 q=5.0 size=    3072kB time=00:00:03.16 bitrate=7963.8kbits/s speed=0.543x    frame=   87 fps= 14 q=5.0 size=    3584kB time=00:00:03.44 bitrate=8534.8kbits/s speed=0.543x    frame=   96 fps= 14 q=5.0 size=    3840kB time=00:00:03.80 bitrate=8278.2kbits/s speed=0.552x    frame=  105 fps= 14 q=5.0 size=    4096kB time=00:00:04.16 bitrate=8065.9kbits/s speed=0.559x    frame=  112 fps= 14 q=5.0 size=    4352kB time=00:00:04.44 bitrate=8029.6kbits/s speed=0.555x    frame=  119 fps= 14 q=5.0 size=    4608kB time=00:00:04.72 bitrate=7997.6kbits/s speed=0.553x    frame=  125 fps= 14 q=5.0 size=    4864kB time=00:00:04.96 bitrate=8033.4kbits/s speed=0.548x    frame=  133 fps= 14 q=5.0 size=    5120kB time=00:00:05.28 bitrate=7943.7kbits/s speed=0.55x    frame=  141 fps= 14 q=5.0 size=    5376kB time=00:00:05.60 bitrate=7864.3kbits/s speed=0.554x    frame=  150 fps= 14 q=5.0 size=    5632kB time=00:00:05.96 bitrate=7741.1kbits/s speed=0.56x    frame=  158 fps= 14 q=5.0 size=    5888kB time=00:00:06.28 bitrate=7680.6kbits/s speed=0.562x    frame=  167 fps= 14 q=5.0 size=    6144kB time=00:00:06.64 bitrate=7580.0kbits/s speed=0.566x    frame=  176 fps= 14 q=5.0 size=    6400kB time=00:00:07.00 bitrate=7489.8kbits/s speed=0.571x    frame=  185 fps= 14 q=5.0 size=    6656kB time=00:00:07.36 bitrate=7408.4kbits/s speed=0.576x    frame=  194 fps= 15 q=5.0 size=    6912kB time=00:00:07.72 bitrate=7334.6kbits/s speed=0.58x    frame=  201 fps= 15 q=5.0 size=    7168kB time=00:00:08.00 bitrate=7340.0kbits/s speed=0.579x    frame=  210 fps= 15 q=5.0 size=    7424kB time=00:00:08.36 bitrate=7274.8kbits/s speed=0.582x    frame=  219 fps= 15 q=5.0 size=    7936kB time=00:00:08.72 bitrate=7455.4kbits/s speed=0.584x    frame=  227 fps= 15 q=5.0 size=    8192kB time=00:00:09.04 bitrate=7423.5kbits/s speed=0.584x    frame=  236 fps= 15 q=5.0 size=    8448kB time=00:00:09.40 bitrate=7362.3kbits/s speed=0.588x    frame=  244 fps= 15 q=5.0 size=    8960kB time=00:00:09.72 bitrate=7551.4kbits/s speed=0.588x    frame=  252 fps= 15 q=5.0 size=    9216kB time=00:00:10.04 bitrate=7519.6kbits/s speed=0.588x    frame=  260 fps= 15 q=5.0 size=    9472kB time=00:00:10.36 bitrate=7489.8kbits/s speed=0.589x    frame=  268 fps= 15 q=5.0 size=    9984kB time=00:00:10.68 bitrate=7658.1kbits/s speed=0.588x    frame=  276 fps= 15 q=5.0 size=   10240kB time=00:00:11.00 bitrate=7626.0kbits/s speed=0.589x    frame=  285 fps= 15 q=5.0 size=   10496kB time=00:00:11.36 bitrate=7568.9kbits/s speed=0.591x    frame=  294 fps= 15 q=5.0 size=   10752kB time=00:00:11.72 bitrate=7515.4kbits/s speed=0.593x    frame=  304 fps= 15 q=5.0 size=   11264kB time=00:00:12.12 bitrate=7613.4kbits/s speed=0.597x    frame=  313 fps= 15 q=5.0 size=   11520kB time=00:00:12.48 bitrate=7561.8kbits/s speed= 0.6x    frame=  323 fps= 15 q=5.0 size=   11776kB time=00:00:12.88 bitrate=7489.8kbits/s speed=0.604x    frame=  334 fps= 15 q=5.0 size=   12032kB time=00:00:13.32 bitrate=7399.8kbits/s speed=0.61x    frame=  346 fps= 15 q=5.0 size=   12288kB time=00:00:13.80 bitrate=7294.4kbits/s speed=0.617x    frame=  358 fps= 16 q=5.0 size=   12544kB time=00:00:14.28 bitrate=7196.1kbits/s speed=0.624x    frame=  360 fps= 16 q=5.0 Lsize=   12875kB time=00:00:14.36 bitrate=7344.8kbits/s speed=0.624x    
video:12873kB audio:0kB subtitle:0kB other streams:0kB global headers:0kB muxing overhead: 0.019702%
ffmpeg version 4.2.7-0ubuntu0.1 Copyright (c) 2000-2022 the FFmpeg developers
  built with gcc 9 (Ubuntu 9.4.0-1ubuntu1~20.04.1)
  configuration: --prefix=/usr --extra-version=0ubuntu0.1 --toolchain=hardened --libdir=/usr/lib/x86_64-linux-gnu --incdir=/usr/include/x86_64-linux-gnu --arch=amd64 --enable-gpl --disable-stripping --enable-avresample --disable-filter=resample --enable-avisynth --enable-gnutls --enable-ladspa --enable-libaom --enable-libass --enable-libbluray --enable-libbs2b --enable-libcaca --enable-libcdio --enable-libcodec2 --enable-libflite --enable-libfontconfig --enable-libfreetype --enable-libfribidi --enable-libgme --enable-libgsm --enable-libjack --enable-libmp3lame --enable-libmysofa --enable-libopenjpeg --enable-libopenmpt --enable-libopus --enable-libpulse --enable-librsvg --enable-librubberband --enable-libshine --enable-libsnappy --enable-libsoxr --enable-libspeex --enable-libssh --enable-libtheora --enable-libtwolame --enable-libvidstab --enable-libvorbis --enable-libvpx --enable-libwavpack --enable-libwebp --enable-libx265 --enable-libxml2 --enable-libxvid --enable-libzmq --enable-libzvbi --enable-lv2 --enable-omx --enable-openal --enable-opencl --enable-opengl --enable-sdl2 --enable-libdc1394 --enable-libdrm --enable-libiec61883 --enable-nvenc --enable-chromaprint --enable-frei0r --enable-libx264 --enable-shared
  libavutil      56. 31.100 / 56. 31.100
  libavcodec     58. 54.100 / 58. 54.100
  libavformat    58. 29.100 / 58. 29.100
  libavdevice    58.  8.100 / 58.  8.100
  libavfilter     7. 57.100 /  7. 57.100
  libavresample   4.  0.  0 /  4.  0.  0
  libswscale      5.  5.100 /  5.  5.100
  libswresample   3.  5.100 /  3.  5.100
  libpostproc    55.  5.100 / 55.  5.100
Input #0, rawvideo, from 'pipe:':
  Duration: N/A, start: 0.000000, bitrate: 552960 kb/s
    Stream #0:0: Video: rawvideo (RGB[24] / 0x18424752), rgb24, 1280x720, 552960 kb/s, 25 tbr, 25 tbn, 25 tbc
Stream mapping:
  Stream #0:0 -> #0:0 (rawvideo (native) -> mpeg4 (native))
Output #0, mp4, to 'sout/output_sob_baseline.mp4':
  Metadata:
    encoder         : Lavf58.29.100
    Stream #0:0: Video: mpeg4 (mp4v / 0x7634706D), yuv420p, 1280x720, q=2-31, 200 kb/s, 25 fps, 12800 tbn, 25 tbc
    Metadata:
      encoder         : Lavc58.54.100 mpeg4
    Side data:
      cpb: bitrate max/min/avg: 0/0/200000 buffer size: 0 vbv_delay: -1
frame=    7 fps=0.0 q=5.0 size=     256kB time=00:00:00.24 bitrate=8736.8kbits/s speed=0.472x    frame=   14 fps= 14 q=5.0 size=     512kB time=00:00:00.52 bitrate=8065.4kbits/s speed=0.505x    frame=   20 fps= 12 q=5.0 size=     768kB time=00:00:00.76 bitrate=8277.8kbits/s speed=0.468x    frame=   28 fps= 13 q=5.0 size=    1024kB time=00:00:01.08 bitrate=7767.0kbits/s speed=0.493x    frame=   36 fps= 13 q=5.0 size=    1280kB time=00:00:01.40 bitrate=7489.7kbits/s speed=0.503x    frame=   43 fps= 13 q=5.0 size=    1536kB time=00:00:01.68 bitrate=7489.7kbits/s speed=0.506x    frame=   51 fps= 13 q=5.0 size=    2048kB time=00:00:02.00 bitrate=8388.5kbits/s speed=0.523x    frame=   58 fps= 13 q=5.0 size=    2304kB time=00:00:02.28 bitrate=8278.1kbits/s speed=0.522x    frame=   66 fps= 13 q=5.0 size=    2560kB time=00:00:02.60 bitrate=8065.9kbits/s speed=0.531x    frame=   74 fps= 14 q=5.0 size=    3072kB time=00:00:02.92 bitrate=8618.3kbits/s speed=0.541x    frame=   83 fps= 14 q=5.0 size=    3328kB time=00:00:03.28 bitrate=8311.8kbits/s speed=0.552x    frame=   90 fps= 14 q=5.0 size=    3584kB time=00:00:03.56 bitrate=8247.1kbits/s speed=0.552x    frame=   98 fps= 14 q=5.0 size=    3840kB time=00:00:03.88 bitrate=8107.5kbits/s speed=0.553x    frame=  106 fps= 14 q=5.0 size=    4096kB time=00:00:04.20 bitrate=7989.1kbits/s speed=0.555x    frame=  115 fps= 14 q=5.0 size=    4352kB time=00:00:04.56 bitrate=7818.3kbits/s speed=0.562x    frame=  123 fps= 14 q=5.0 size=    4864kB time=00:00:04.88 bitrate=8165.1kbits/s speed=0.565x    frame=  132 fps= 14 q=5.0 size=    5120kB time=00:00:05.24 bitrate=8004.3kbits/s speed=0.573x    frame=  142 fps= 15 q=5.0 size=    5376kB time=00:00:05.64 bitrate=7808.5kbits/s speed=0.582x    frame=  151 fps= 15 q=5.0 size=    5632kB time=00:00:06.00 bitrate=7689.5kbits/s speed=0.587x    frame=  160 fps= 15 q=5.0 size=    5888kB time=00:00:06.36 bitrate=7584.0kbits/s speed=0.592x    frame=  169 fps= 15 q=5.0 size=    6144kB time=00:00:06.72 bitrate=7489.8kbits/s speed=0.595x    frame=  177 fps= 15 q=5.0 size=    6400kB time=00:00:07.04 bitrate=7447.2kbits/s speed=0.594x    frame=  184 fps= 15 q=5.0 size=    6656kB time=00:00:07.32 bitrate=7448.9kbits/s speed=0.592x    frame=  192 fps= 15 q=5.0 size=    6912kB time=00:00:07.64 bitrate=7411.4kbits/s speed=0.593x    frame=  201 fps= 15 q=5.0 size=    7168kB time=00:00:08.00 bitrate=7340.0kbits/s speed=0.595x    frame=  210 fps= 15 q=5.0 size=    7424kB time=00:00:08.36 bitrate=7274.8kbits/s speed=0.599x    frame=  218 fps= 15 q=5.0 size=    7936kB time=00:00:08.68 bitrate=7489.8kbits/s speed=0.598x    frame=  226 fps= 15 q=5.0 size=    8192kB time=00:00:09.00 bitrate=7456.5kbits/s speed=0.598x    frame=  233 fps= 15 q=5.0 size=    8448kB time=00:00:09.28 bitrate=7457.5kbits/s speed=0.597x    frame=  240 fps= 15 q=5.0 size=    8704kB time=00:00:09.56 bitrate=7458.5kbits/s speed=0.595x    frame=  248 fps= 15 q=5.0 size=    8960kB time=00:00:09.88 bitrate=7429.2kbits/s speed=0.594x    frame=  255 fps= 15 q=5.0 size=    9472kB time=00:00:10.16 bitrate=7637.2kbits/s speed=0.591x    frame=  263 fps= 15 q=5.0 size=    9728kB time=00:00:10.48 bitrate=7604.2kbits/s speed=0.591x    frame=  271 fps= 15 q=5.0 size=    9984kB time=00:00:10.80 bitrate=7573.0kbits/s speed=0.59x    frame=  278 fps= 15 q=5.0 size=   10240kB time=00:00:11.08 bitrate=7570.9kbits/s speed=0.588x    frame=  285 fps= 15 q=5.0 size=   10496kB time=00:00:11.36 bitrate=7568.9kbits/s speed=0.586x    frame=  291 fps= 15 q=5.0 size=   10752kB time=00:00:11.60 bitrate=7593.1kbits/s speed=0.583x    frame=  299 fps= 15 q=5.0 size=   11008kB time=00:00:11.92 bitrate=7565.2kbits/s speed=0.583x    frame=  308 fps= 15 q=5.0 size=   11264kB time=00:00:12.28 bitrate=7514.2kbits/s speed=0.585x    frame=  316 fps= 15 q=5.0 size=   11520kB time=00:00:12.60 bitrate=7489.8kbits/s speed=0.585x    frame=  323 fps= 15 q=5.0 size=   11776kB time=00:00:12.88 bitrate=7489.8kbits/s speed=0.585x    frame=  331 fps= 15 q=5.0 size=   12032kB time=00:00:13.20 bitrate=7467.1kbits/s speed=0.586x    frame=  340 fps= 15 q=5.0 size=   12288kB time=00:00:13.56 bitrate=7423.5kbits/s speed=0.588x    frame=  349 fps= 15 q=5.0 size=   12544kB time=00:00:13.92 bitrate=7382.2kbits/s speed=0.59x    frame=  358 fps= 15 q=5.0 size=   12544kB time=00:00:14.28 bitrate=7196.1kbits/s speed=0.592x    frame=  360 fps= 15 q=5.0 Lsize=   12875kB time=00:00:14.36 bitrate=7344.8kbits/s speed=0.591x    
video:12873kB audio:0kB subtitle:0kB other streams:0kB global headers:0kB muxing overhead: 0.019702%
ffmpeg version 4.2.7-0ubuntu0.1 Copyright (c) 2000-2022 the FFmpeg developers
  built with gcc 9 (Ubuntu 9.4.0-1ubuntu1~20.04.1)
  configuration: --prefix=/usr --extra-version=0ubuntu0.1 --toolchain=hardened --libdir=/usr/lib/x86_64-linux-gnu --incdir=/usr/include/x86_64-linux-gnu --arch=amd64 --enable-gpl --disable-stripping --enable-avresample --disable-filter=resample --enable-avisynth --enable-gnutls --enable-ladspa --enable-libaom --enable-libass --enable-libbluray --enable-libbs2b --enable-libcaca --enable-libcdio --enable-libcodec2 --enable-libflite --enable-libfontconfig --enable-libfreetype --enable-libfribidi --enable-libgme --enable-libgsm --enable-libjack --enable-libmp3lame --enable-libmysofa --enable-libopenjpeg --enable-libopenmpt --enable-libopus --enable-libpulse --enable-librsvg --enable-librubberband --enable-libshine --enable-libsnappy --enable-libsoxr --enable-libspeex --enable-libssh --enable-libtheora --enable-libtwolame --enable-libvidstab --enable-libvorbis --enable-libvpx --enable-libwavpack --enable-libwebp --enable-libx265 --enable-libxml2 --enable-libxvid --enable-libzmq --enable-libzvbi --enable-lv2 --enable-omx --enable-openal --enable-opencl --enable-opengl --enable-sdl2 --enable-libdc1394 --enable-libdrm --enable-libiec61883 --enable-nvenc --enable-chromaprint --enable-frei0r --enable-libx264 --enable-shared
  libavutil      56. 31.100 / 56. 31.100
  libavcodec     58. 54.100 / 58. 54.100
  libavformat    58. 29.100 / 58. 29.100
  libavdevice    58.  8.100 / 58.  8.100
  libavfilter     7. 57.100 /  7. 57.100
  libavresample   4.  0.  0 /  4.  0.  0
  libswscale      5.  5.100 /  5.  5.100
  libswresample   3.  5.100 /  3.  5.100
  libpostproc    55.  5.100 / 55.  5.100
Input #0, rawvideo, from 'pipe:':
  Duration: N/A, start: 0.000000, bitrate: 552960 kb/s
    Stream #0:0: Video: rawvideo (RGB[24] / 0x18424752), rgb24, 1280x720, 552960 kb/s, 25 tbr, 25 tbn, 25 tbc
Stream mapping:
  Stream #0:0 -> #0:0 (rawvideo (native) -> mpeg4 (native))
Output #0, mp4, to 'sout/output_sob_baseline.mp4':
  Metadata:
    encoder         : Lavf58.29.100
    Stream #0:0: Video: mpeg4 (mp4v / 0x7634706D), yuv420p, 1280x720, q=2-31, 200 kb/s, 25 fps, 12800 tbn, 25 tbc
    Metadata:
      encoder         : Lavc58.54.100 mpeg4
    Side data:
      cpb: bitrate max/min/avg: 0/0/200000 buffer size: 0 vbv_delay: -1
frame=    8 fps=0.0 q=5.0 size=     256kB time=00:00:00.28 bitrate=7489.0kbits/s speed=0.533x    frame=   15 fps= 14 q=5.0 size=     512kB time=00:00:00.56 bitrate=7489.4kbits/s speed=0.524x    frame=   23 fps= 14 q=5.0 size=     768kB time=00:00:00.88 bitrate=7149.1kbits/s speed=0.552x    frame=   31 fps= 15 q=5.0 size=    1024kB time=00:00:01.20 bitrate=6990.3kbits/s speed=0.572x    frame=   39 fps= 15 q=5.0 size=    1536kB time=00:00:01.52 bitrate=8278.0kbits/s speed=0.571x    frame=   47 fps= 15 q=5.0 size=    1792kB time=00:00:01.84 bitrate=7978.1kbits/s speed=0.575x    frame=   55 fps= 15 q=5.0 size=    2048kB time=00:00:02.16 bitrate=7767.1kbits/s speed=0.578x    frame=   63 fps= 15 q=5.0 size=    2560kB time=00:00:02.48 bitrate=8456.1kbits/s speed=0.579x    frame=   70 fps= 15 q=5.0 size=    2816kB time=00:00:02.76 bitrate=8358.1kbits/s speed=0.573x    frame=   78 fps= 15 q=5.0 size=    3072kB time=00:00:03.08 bitrate=8170.6kbits/s speed=0.576x    frame=   85 fps= 14 q=5.0 size=    3328kB time=00:00:03.36 bitrate=8113.9kbits/s speed=0.567x    frame=   92 fps= 14 q=5.0 size=    3584kB time=00:00:03.64 bitrate=8065.9kbits/s speed=0.566x    frame=  100 fps= 14 q=5.0 size=    3840kB time=00:00:03.96 bitrate=7943.7kbits/s speed=0.571x    frame=  108 fps= 14 q=5.0 size=    4096kB time=00:00:04.28 bitrate=7839.8kbits/s speed=0.571x    frame=  116 fps= 14 q=5.0 size=    4608kB time=00:00:04.60 bitrate=8206.2kbits/s speed=0.572x    frame=  123 fps= 14 q=5.0 size=    4864kB time=00:00:04.88 bitrate=8165.1kbits/s speed=0.57x    frame=  129 fps= 14 q=5.0 size=    4864kB time=00:00:05.12 bitrate=7782.4kbits/s speed=0.565x    frame=  135 fps= 14 q=5.0 size=    5120kB time=00:00:05.36 bitrate=7825.1kbits/s speed=0.558x    frame=  143 fps= 14 q=5.0 size=    5376kB time=00:00:05.68 bitrate=7753.5kbits/s speed=0.559x    frame=  151 fps= 14 q=5.0 size=    5632kB time=00:00:06.00 bitrate=7689.5kbits/s speed=0.562x    frame=  158 fps= 14 q=5.0 size=    5888kB time=00:00:06.28 bitrate=7680.6kbits/s speed=0.56x    frame=  166 fps= 14 q=5.0 size=    6144kB time=00:00:06.60 bitrate=7626.0kbits/s speed=0.563x    frame=  174 fps= 14 q=5.0 size=    6400kB time=00:00:06.92 bitrate=7576.4kbits/s speed=0.565x    frame=  182 fps= 14 q=5.0 size=    6656kB time=00:00:07.24 bitrate=7531.2kbits/s speed=0.565x    frame=  190 fps= 14 q=5.0 size=    6912kB time=00:00:07.56 bitrate=7489.8kbits/s speed=0.568x    frame=  199 fps= 14 q=5.0 size=    7168kB time=00:00:07.92 bitrate=7414.1kbits/s speed=0.571x    frame=  207 fps= 14 q=5.0 size=    7424kB time=00:00:08.24 bitrate=7380.7kbits/s speed=0.572x    frame=  215 fps= 14 q=5.0 size=    7680kB time=00:00:08.56 bitrate=7349.8kbits/s speed=0.573x    frame=  223 fps= 14 q=5.0 size=    7936kB time=00:00:08.88 bitrate=7321.1kbits/s speed=0.574x    frame=  231 fps= 14 q=5.0 size=    8448kB time=00:00:09.20 bitrate=7522.4kbits/s speed=0.574x    frame=  238 fps= 14 q=5.0 size=    8704kB time=00:00:09.48 bitrate=7521.4kbits/s speed=0.573x    frame=  246 fps= 14 q=5.0 size=    8960kB time=00:00:09.80 bitrate=7489.8kbits/s speed=0.574x    frame=  254 fps= 14 q=5.0 size=    9216kB time=00:00:10.12 bitrate=7460.2kbits/s speed=0.575x    frame=  261 fps= 14 q=5.0 size=    9472kB time=00:00:10.40 bitrate=7461.0kbits/s speed=0.573x    frame=  267 fps= 14 q=5.0 size=    9728kB time=00:00:10.64 bitrate=7489.8kbits/s speed=0.569x    frame=  274 fps= 14 q=5.0 size=   10240kB time=00:00:10.92 bitrate=7681.9kbits/s speed=0.569x    frame=  281 fps= 14 q=5.0 size=   10496kB time=00:00:11.20 bitrate=7677.1kbits/s speed=0.567x    frame=  289 fps= 14 q=5.0 size=   10752kB time=00:00:11.52 bitrate=7645.8kbits/s speed=0.568x    frame=  297 fps= 14 q=5.0 size=   11008kB time=00:00:11.84 bitrate=7616.3kbits/s speed=0.569x    frame=  305 fps= 14 q=5.0 size=   11264kB time=00:00:12.16 bitrate=7588.4kbits/s speed=0.569x    frame=  312 fps= 14 q=5.0 size=   11264kB time=00:00:12.44 bitrate=7417.6kbits/s speed=0.568x    frame=  319 fps= 14 q=5.0 size=   11520kB time=00:00:12.72 bitrate=7419.2kbits/s speed=0.568x    frame=  327 fps= 14 q=5.0 size=   11776kB time=00:00:13.04 bitrate=7397.9kbits/s speed=0.568x    frame=  335 fps= 14 q=5.0 size=   12032kB time=00:00:13.36 bitrate=7377.7kbits/s speed=0.568x    frame=  343 fps= 14 q=5.0 size=   12288kB time=00:00:13.68 bitrate=7358.4kbits/s speed=0.568x    frame=  351 fps= 14 q=5.0 size=   12544kB time=00:00:14.00 bitrate=7340.0kbits/s speed=0.569x    frame=  360 fps= 14 q=5.0 Lsize=   12875kB time=00:00:14.36 bitrate=7344.8kbits/s speed=0.572x    
video:12873kB audio:0kB subtitle:0kB other streams:0kB global headers:0kB muxing overhead: 0.019702%
